# xmcd CD database file
#
# Track frame offsets:
#	150
#	15047
#	29171
#	43683
#	57507
#	70623
#	85957
#	96281
#	109301
#	124028
#	135753
#	149473
#	162147
#	175838
#	191065
#
# Disc length: 2726 seconds
#
# Revision: 0
# Processed by: cddbd v1.5.2PL0 Copyright (c) Steve Scherf et al.
# Submitted via: CDex 1.79
#
DISCID=c90aa40f
DTITLE=Simply Crooners - CD#1
DYEAR=1900
DGENRE=Jazz
TTITLE0=Nat King Cole - Mona Lisa
TTITLE1=Franck Sinatra - They Say It's Wonderful
TTITLE2=Bing Crosby - Moonlight Becomes You
TTITLE3=Perry Como - My Melancholy Baby
TTITLE4=Vic Damone - April In Portugal
TTITLE5=Al Bowly - Love Is The Sweetest Thing
TTITLE6=Perry Como - When You're Smiling
TTITLE7=Tony Martin - Intermezzo (A Love Story)
TTITLE8=Dean Martin - I'm Gonna Paper All
TTITLE9=Dick Haymes - As If I Didn't Have Enough On My Mind
TTITLE10=Billy Eckstine - Be My Love
TTITLE11=Jean Sablon - Don't Take Your love From Me
TTITLE12=Donald peers - In A Shady Nook
TTITLE13=Franck Sinatra - Stella By Stralight
TTITLE14=Nat King Cole - Tenderly
EXTD=
EXTT0=
EXTT1=
EXTT2=
EXTT3=
EXTT4=
EXTT5=
EXTT6=
EXTT7=
EXTT8=
EXTT9=
EXTT10=
EXTT11=
EXTT12=
EXTT13=
EXTT14=
PLAYORDER=
